<svg width="645" height="677" viewBox="0 0 645 677" fill="none" xmlns="http://www.w3.org/2000/svg">
<path d="M321.649 272L219 394.099L284.581 487H361.568L430 394.099L321.649 272Z" stroke="black" stroke-opacity="0.05"/>
<path d="M322.27 333L278 388.086L306.284 430H339.486L369 388.086L322.27 333Z" stroke="black" stroke-opacity="0.05"/>
<path d="M321.207 195.121L160.286 385.71L263.096 530.724H383.787L491.067 385.71L321.207 195.121Z" stroke="black" stroke-opacity="0.05"/>
<path d="M317.324 128L95 388.099L237.041 586H403.784L552 388.099L317.324 128Z" stroke="black" stroke-opacity="0.05"/>
<path d="M315.432 66L43 385.16L217.054 628H421.378L603 385.16L315.432 66Z" stroke="black" stroke-opacity="0.05"/>
<path d="M313.811 1L1 384.333L200.851 676H435.459L644 384.333L313.811 1Z" stroke="black" stroke-opacity="0.05"/>
</svg>
