<svg width="45" height="45" viewBox="0 0 45 45" fill="none" xmlns="http://www.w3.org/2000/svg">
<path d="M39.0635 25.7633L37.0161 24.3982V0H9.43548V4.35484H0V45H27.5806V40.6452H37.0161V34.5389C37.0618 34.5279 37.109 34.5244 37.1547 34.5134L40.531 33.6696C41.2802 33.4821 42.0511 33.3871 42.8226 33.3871H45V31.9355H42.8226C41.9327 31.9355 41.0428 32.045 40.1791 32.2608L36.8028 33.1046C35.0673 33.5381 33.2202 33.4675 31.5247 32.9023L30.3017 32.4944C29.1882 32.1233 28.0286 31.9355 26.8548 31.9355H20.5214C20.5214 30.7351 21.4985 29.7581 22.6988 29.7581H30.6827C31.8834 29.7581 32.8601 28.781 32.8601 27.5806C32.8601 26.4671 32.0166 25.557 30.9375 25.4287L31.5332 23.2258H31.9819C32.4132 23.2258 32.8303 23.352 33.1897 23.5915L38.2586 26.9711C38.8576 27.3694 39.5536 27.5806 40.272 27.5806H45V26.129H40.272C39.841 26.129 39.4228 26.0029 39.0635 25.7633ZM31.0644 34.2791C32.1779 34.6509 33.3378 34.8387 34.5112 34.8387C34.8635 34.8387 35.2147 34.8082 35.5645 34.7742V39.1936H27.5806V36.8194C27.8355 36.5256 28.0329 36.178 28.1388 35.7846L28.7331 33.5831C29.107 33.6593 29.4777 33.75 29.8417 33.8719L31.0644 34.2791ZM27.2787 33.4038L26.7379 35.4054C26.5972 35.9267 26.1219 36.2903 25.5826 36.2903H25.3472C24.6877 36.2903 24.1511 35.7541 24.1511 35.0942C24.1511 34.9883 24.165 34.8837 24.1926 34.782L24.5693 33.3871H26.8548C26.9962 33.3871 27.1373 33.3981 27.2787 33.4038ZM23.0879 23.863C23.4937 23.4579 24.0547 23.2258 24.6275 23.2258H25.8118L25.2196 25.4163C24.3014 25.4497 23.4406 25.8126 22.7874 26.4657L19.0081 30.245C18.8564 30.3967 18.6466 30.4839 18.4326 30.4839C17.9832 30.4839 17.6182 30.1188 17.6182 29.6702C17.6182 29.4526 17.7032 29.2484 17.857 29.0946L23.0879 23.863ZM33.5444 10.2187L32.6556 13.5072L30.166 12.6775L30.9992 9.59461C31.1406 9.07329 31.6155 8.70968 32.1545 8.70968H32.3898C33.0497 8.70968 33.5859 9.24588 33.5859 9.90577C33.5859 10.0117 33.5721 10.1163 33.5444 10.2187ZM29.7871 14.0813L32.2768 14.9109L31.8759 16.3923L29.3863 15.5627L29.7871 14.0813ZM29.0067 16.9664L31.4964 17.7961L28.6562 28.3065H25.9426L29.0067 16.9664ZM23.8138 27.492C24.0881 27.2177 24.4371 27.0306 24.8096 26.9332L24.4386 28.3065H23.0001L23.8138 27.492ZM30.6827 26.8548C31.0828 26.8548 31.4085 27.1809 31.4085 27.5806C31.4085 27.9804 31.0828 28.3065 30.6827 28.3065H30.1596L30.5523 26.8548H30.6827ZM31.9812 21.7742H31.9252L34.9461 10.5976C35.007 10.3725 35.0375 10.1404 35.0375 9.90577C35.0375 8.44565 33.8496 7.25806 32.3898 7.25806H32.1545C30.9609 7.25806 29.9097 8.0629 29.5982 9.2154L27.5806 16.6811V4.35484H12.3387V5.80645H26.129V21.7742H24.6275C23.8375 21.7742 23.0936 22.0361 22.4716 22.5H15.2419V23.9516H20.9467L19.4951 25.4032H15.2419V26.8548H18.0442L16.8314 28.0676C16.4033 28.495 16.1673 29.0642 16.1673 29.6702C16.1673 30.9194 17.1833 31.9355 18.4333 31.9355C18.6569 31.9355 18.8724 31.8926 19.0815 31.8302C19.0808 31.8657 19.0705 31.8993 19.0705 31.9355C19.0705 32.7361 19.7215 33.3871 20.5221 33.3871H23.066L22.7917 34.4024C22.7307 34.6275 22.7002 34.8596 22.7002 35.0942C22.7002 36.0756 23.2432 36.924 24.0381 37.3812L23.8102 38.2913L25.2182 38.6435L25.4433 37.7419H25.5826C25.7697 37.7419 25.9511 37.7157 26.129 37.6781V43.5484H1.45161V5.80645H10.8871V1.45161H35.5645V23.4306L33.9945 22.3838C33.396 21.9854 32.6999 21.7742 31.9812 21.7742ZM2.90323 14.5161H21.7742V7.25806H2.90323V14.5161ZM4.35484 8.70968H20.3226V13.0645H4.35484V8.70968ZM5.80645 10.1613H7.25806V11.6129H5.80645V10.1613ZM8.70968 10.1613H10.1613V11.6129H8.70968V10.1613ZM11.6129 10.1613H13.0645V11.6129H11.6129V10.1613ZM14.5161 10.1613H15.9677V11.6129H14.5161V10.1613ZM17.4194 10.1613H18.871V11.6129H17.4194V10.1613ZM11.6129 27.5806H2.90323V18.871H8.70968V20.3226H4.35484V26.129H10.1613V23.2258H11.6129V27.5806ZM15.0293 17.2067L7.25806 24.9779L5.29328 23.0132L6.31962 21.9868L7.25806 22.9253L14.003 16.1804L15.0293 17.2067ZM10.1613 35.5645H11.6129V39.9194H2.90323V31.2097H8.70968V32.6613H4.35484V38.4677H10.1613V35.5645ZM7.25806 35.264L14.003 28.5191L15.0293 29.5454L7.25806 37.3167L5.29328 35.3519L6.31962 34.3255L7.25806 35.264ZM24.6774 41.371H23.2258V39.9194H24.6774V41.371ZM13.7903 39.9194H21.7742V41.371H13.7903V39.9194ZM15.2419 19.5968H24.6774V21.0484H15.2419V19.5968Z" fill="url(#paint0_linear)"/>
<defs>
<linearGradient id="paint0_linear" x1="22.5" y1="45" x2="22.5" y2="0" gradientUnits="userSpaceOnUse">
<stop stop-color="#0961B3"/>
<stop offset="1" stop-color="#00A7A0"/>
</linearGradient>
</defs>
</svg>
