<svg width="50" height="50" viewBox="0 0 50 50" fill="none" xmlns="http://www.w3.org/2000/svg">
<g clip-path="url(#clip0)">
<path d="M47.4748 20.8223L48.8457 19.4525L50.0001 20.607L46.2797 24.3271L46.0927 22.638C44.9032 11.882 35.8346 3.771 25.0001 3.771C24.4743 3.771 23.9453 3.78973 23.4267 3.828L23.3075 2.19917C23.8652 2.15851 24.4352 2.13818 25.0001 2.13818C36.1121 2.13818 45.4991 10.0615 47.4748 20.8223ZM2.52496 29.1725C4.501 39.9337 13.8881 47.857 25.0001 47.857C25.5665 47.857 26.1374 47.8366 26.6931 47.7948L26.5723 46.1667C26.0565 46.2054 25.5275 46.2241 25.0001 46.2241C14.1655 46.2241 5.09696 38.1123 3.90743 27.3571L3.72047 25.6677L0 29.3881L1.15445 30.5426L2.52496 29.1725ZM41.3282 24.9976C41.3282 34.0008 34.0033 41.3257 25.0001 41.3257C15.9969 41.3257 8.67193 34.0008 8.67193 24.9976C8.67193 15.9944 15.9969 8.66944 25.0001 8.66944C34.0033 8.66944 41.3282 15.9944 41.3282 24.9976ZM39.6535 25.814H35.6134V24.1812H39.6535C39.2414 16.7307 33.267 10.7563 25.8165 10.3437V14.3843H24.1837V10.3437C16.7332 10.7563 10.7588 16.7307 10.3462 24.1812H14.3868V25.814H10.3462C10.7588 33.2645 16.7332 39.2388 24.1837 39.651V35.6109H25.8165V39.651C33.267 39.2388 39.2414 33.2645 39.6535 25.814ZM12.8656 11.7577C16.1854 8.71329 20.4943 7.03662 25.0001 7.03662C34.9038 7.03662 42.961 15.0939 42.961 24.9976C42.961 29.5034 41.284 33.8122 38.2388 37.1317L39.4431 38.2355C42.7641 34.6131 44.5938 29.9131 44.5938 24.9976C44.5938 14.1933 35.8035 5.40381 25.0001 5.40381C20.0845 5.40381 15.3834 7.23315 11.7622 10.5554L12.8656 11.7577ZM25.0001 44.5913C29.9157 44.5913 34.6156 42.7616 38.238 39.4398L37.1342 38.2355C33.8147 41.2815 29.5059 42.9585 25.0001 42.9585C15.0964 42.9585 7.03912 34.9013 7.03912 24.9976C7.03912 20.4926 8.71578 16.1829 11.761 12.8623L10.5571 11.7585C7.23565 15.3809 5.4063 20.0828 5.4063 24.9976C5.4063 35.801 14.1966 44.5913 25.0001 44.5913ZM27.299 24.1812H30.7149V25.814H27.299C26.961 26.7619 26.0628 27.4468 25.0001 27.4468C23.6495 27.4468 22.5509 26.3477 22.5509 24.9976C22.5509 23.9344 23.2357 23.0367 24.1837 22.6986V16.0171H25.8165V22.6986C26.5081 22.945 27.0527 23.4895 27.299 24.1812ZM25.8165 24.9976C25.8165 24.5475 25.4505 24.1812 25.0001 24.1812C24.5492 24.1812 24.1837 24.5475 24.1837 24.9976C24.1837 25.4472 24.5492 25.814 25.0001 25.814C25.4505 25.814 25.8165 25.4472 25.8165 24.9976ZM21.341 2.41803L19.7401 2.73733L20.059 4.33826L21.6599 4.01895L21.341 2.41803ZM17.0066 3.5661L15.4978 4.19076L16.1224 5.6992L17.6313 5.07494L17.0066 3.5661ZM11.6206 6.44385L12.5271 7.80161L13.8853 6.89551L12.9792 5.53775L11.6206 6.44385ZM9.413 8.25645L8.25895 9.4105L9.413 10.565L10.5674 9.4105L9.413 8.25645ZM5.53945 12.9759L6.8972 13.8828L7.8041 12.5254L6.44635 11.6181L5.53945 12.9759ZM5.70169 16.1199L4.19325 15.4945L3.56779 17.0033L5.07623 17.6288L5.70169 16.1199ZM4.34075 20.0557L2.73903 19.7376L2.41972 21.3393L4.02144 21.6574L4.34075 20.0557ZM30.2601 47.2586L29.9408 45.6565L28.3398 45.9758L28.6592 47.5775L30.2601 47.2586ZM32.9935 46.429L34.5024 45.8036L33.8777 44.2947L32.3689 44.9202L32.9935 46.429ZM36.1137 43.1004L37.0202 44.4582L38.3783 43.5513L37.4722 42.1935L36.1137 43.1004ZM40.5868 41.7387L41.7412 40.5842L40.5868 39.4298L39.4323 40.5842L40.5868 41.7387ZM44.4607 37.0184L43.1029 36.1119L42.196 37.4705L43.5538 38.3766L44.4607 37.0184ZM44.9227 32.3664L44.2973 33.8752L45.8061 34.4999L46.4316 32.991L44.9227 32.3664ZM47.5792 28.6566L45.9775 28.3373L45.6582 29.9383L47.2603 30.2576L47.5792 28.6566Z" fill="url(#paint0_linear)"/>
</g>
<defs>
<linearGradient id="paint0_linear" x1="25" y1="47.8569" x2="25" y2="2.13813" gradientUnits="userSpaceOnUse">
<stop stop-color="#0961B3"/>
<stop offset="1" stop-color="#00A7A0"/>
</linearGradient>
<clipPath id="clip0">
<rect width="50" height="50" fill="white"/>
</clipPath>
</defs>
</svg>
