<svg width="15" height="15" viewBox="0 0 15 15" fill="none" xmlns="http://www.w3.org/2000/svg">
<path d="M2.19727 15H7.08984V9.66797H5.33203V7.91016H7.08984V5.71289C7.08984 4.5013 8.07552 3.51562 9.28711 3.51562H11.4844V5.27344H9.72656C9.24191 5.27344 8.84766 5.66769 8.84766 6.15234V7.91016H11.4051L11.1121 9.66797H8.84766V15H12.8027C14.0143 15 15 14.0143 15 12.8027V2.19727C15 0.98568 14.0143 0 12.8027 0H2.19727C0.98568 0 0 0.98568 0 2.19727V12.8027C0 14.0143 0.98568 15 2.19727 15ZM0.878906 2.19727C0.878906 1.47034 1.47034 0.878906 2.19727 0.878906H12.8027C13.5297 0.878906 14.1211 1.47034 14.1211 2.19727V12.8027C14.1211 13.5297 13.5297 14.1211 12.8027 14.1211H9.72656V10.5469H11.8567L12.4426 7.03125H9.72656V6.15234H12.3633V2.63672H9.28711C7.59087 2.63672 6.21094 4.01665 6.21094 5.71289V7.03125H4.45312V10.5469H6.21094V14.1211H2.19727C1.47034 14.1211 0.878906 13.5297 0.878906 12.8027V2.19727Z" fill="white"/>
</svg>
