<svg width="45" height="45" viewBox="0 0 45 45" fill="none" xmlns="http://www.w3.org/2000/svg">
<path d="M42.414 13.9261L37.7419 12.5244V11.4219C39.0564 10.5026 39.9194 8.98044 39.9194 7.25877V5.08065C39.9194 2.27913 37.6402 0 34.8387 0C32.0372 0 29.7581 2.27913 29.7581 5.08065V7.25806C29.7581 8.98044 30.621 10.5026 31.9355 11.4212V12.5237L27.8181 13.7591C26.2729 12.3773 24.3042 11.6129 22.214 11.6129C20.1323 11.6129 18.2277 12.3756 16.7559 13.6323L13.0645 12.5244V11.4219C14.379 10.5026 15.2419 8.98044 15.2419 7.25877V5.08065C15.2419 2.27913 12.9628 0 10.1613 0C7.35978 0 5.08065 2.27913 5.08065 5.08065V7.25806C5.08065 8.98044 5.9436 10.5026 7.25806 11.4212V12.5237L2.58604 13.9253C1.03945 14.39 0 15.787 0 17.402V23.2258H1.45161V17.402C1.45161 16.4331 2.075 15.5946 3.00352 15.3167L7.67696 13.9144C8.09941 14.463 8.91665 15.2419 10.1613 15.2419C11.4059 15.2419 12.2232 14.463 12.6456 13.9144L15.6222 14.8071C14.6774 15.9954 14.048 17.4417 13.8569 19.0241C12.9302 18.0392 11.6179 17.4194 10.1613 17.4194C7.35978 17.4194 5.08065 19.6985 5.08065 22.5V24.6774C5.08065 26.3998 5.9436 27.9219 7.25806 28.8405V29.9431L2.58604 31.3447C1.03945 31.8093 0 33.2064 0 34.8213V41.371H8.70968C9.10944 41.371 9.43548 41.697 9.43548 42.0968V45H35.5645V42.0968C35.5645 41.697 35.8906 41.371 36.2903 41.371H45V34.8213C45 33.2064 43.9606 31.8093 42.414 31.3454L37.7419 29.9438V28.8412C39.0564 27.9219 39.9194 26.3998 39.9194 24.6781V22.5007C39.9194 19.6992 37.6402 17.4201 34.8387 17.4201C33.4176 17.4201 32.1329 18.008 31.2097 18.9514V18.2635C31.2097 16.83 30.4307 15.5396 29.2151 14.8574L32.3544 13.9151C32.7768 14.463 33.5941 15.2419 34.8387 15.2419C36.0834 15.2419 36.9006 14.463 37.323 13.9144L41.9972 15.3167C42.925 15.5946 43.5484 16.4331 43.5484 17.402V23.2258H45V17.402C45 15.787 43.9606 14.39 42.414 13.9261ZM10.1613 1.45161C12.1622 1.45161 13.7903 3.07972 13.7903 5.08065H10.4618C10.0007 5.08065 9.54854 4.89352 9.22285 4.56748L8.70968 4.05431L8.19651 4.56748C7.87082 4.89352 7.41861 5.08065 6.95754 5.08065H6.53226C6.53226 3.07972 8.16036 1.45161 10.1613 1.45161ZM11.6129 12.865C11.4329 13.1428 10.9328 13.7903 10.1613 13.7903C9.38977 13.7903 8.88971 13.1421 8.70968 12.865V12.1254C9.16969 12.2625 9.65698 12.3387 10.1613 12.3387C10.6656 12.3387 11.1529 12.2625 11.6129 12.1247V12.865ZM10.1613 10.8871C8.16036 10.8871 6.53226 9.25899 6.53226 7.25806V6.53226H6.95754C7.58978 6.53226 8.19368 6.35081 8.70968 6.012C9.22568 6.35081 9.82957 6.53226 10.4618 6.53226H13.7903V7.25806C13.7903 9.25899 12.1622 10.8871 10.1613 10.8871ZM14.8879 26.5295C15.4886 27.1189 16.2725 27.4754 17.1096 27.548C17.4839 28.4865 18.0952 29.3051 18.8717 29.9285V31.3585L18.1859 31.5166C18.0392 31.4507 17.8904 31.3918 17.7372 31.3454L13.0645 29.9438V28.8412C13.8796 28.271 14.5183 27.4683 14.8879 26.5295ZM16.7247 26.0029C16.3785 25.8852 16.0592 25.6921 15.8079 25.4163C15.3901 24.9567 15.1934 24.3595 15.2529 23.7354C15.3312 22.9143 15.9125 22.2264 16.6935 21.9308V25.4032C16.6935 25.6056 16.7045 25.8055 16.7247 26.0029ZM21.2008 34.0463L19.3806 35.1385L18.9202 32.8371L19.4313 32.7187L21.2008 34.0463ZM20.3226 31.5726V30.7823C20.9952 31.0559 21.7299 31.2097 22.5 31.2097C23.2701 31.2097 24.0048 31.0559 24.6774 30.7823V31.5726L22.5 33.2056L20.3226 31.5726ZM22.5 34.9592L23.8449 35.7662L23.4282 37.0161H21.5711L21.1544 35.7662L22.5 34.9592ZM23.7992 34.0463L25.5687 32.7187L26.0798 32.8364L25.6194 35.1378L23.7992 34.0463ZM22.5 29.7581C20.0982 29.7581 18.1452 27.805 18.1452 25.4032V21.7742H20.6093C22.191 21.7742 23.7301 21.3794 25.1062 20.6252L25.6804 21.7742H26.8548V25.4032C26.8548 27.805 24.9018 29.7581 22.5 29.7581ZM10.1613 18.871C12.1622 18.871 13.7903 20.4991 13.7903 22.5H13.365C12.904 22.5 12.4518 22.3129 12.1261 21.9868L11.6129 21.4737L11.0997 21.9868C10.774 22.3129 10.3218 22.5 9.86076 22.5H6.53226C6.53226 20.4991 8.16036 18.871 10.1613 18.871ZM6.53226 24.6774V23.9516H9.86076C10.493 23.9516 11.0969 23.7702 11.6129 23.4314C12.1289 23.7702 12.7328 23.9516 13.365 23.9516H13.7903V24.6774C13.7903 26.6784 12.1622 28.3065 10.1613 28.3065C8.16036 28.3065 6.53226 26.6784 6.53226 24.6774ZM11.6129 29.544V30.2836C11.4329 30.5622 10.9328 31.2097 10.1613 31.2097C9.38977 31.2097 8.88971 30.5615 8.70968 30.2843V29.5447C9.16969 29.6819 9.65698 29.7581 10.1613 29.7581C10.6656 29.7581 11.1529 29.6819 11.6129 29.544ZM19.673 43.5484H15.9677V37.7419H14.5161V43.5484H10.8871V42.0968C10.8871 40.8964 9.91002 39.9194 8.70968 39.9194H5.80645V34.8387H4.35484V39.9194H1.45161V34.8213C1.45161 33.8524 2.075 33.0139 3.00352 32.7361L7.67696 31.3337C8.09941 31.8823 8.91665 32.6613 10.1613 32.6613C11.4059 32.6613 12.2232 31.8823 12.6456 31.3337L15.3979 32.1598L13.3736 32.6266C11.0547 33.1621 9.43548 35.1981 9.43548 37.5771V38.4677H10.8871V37.5771C10.8871 35.8774 12.0442 34.4237 13.7003 34.041L17.5051 33.1628L18.3606 37.4421L19.8792 36.5313L20.3088 37.8203L19.673 43.5484ZM21.1334 43.5484L21.698 38.4677H23.302L23.8666 43.5484H21.1334ZM41.9965 32.7361C42.925 33.0139 43.5484 33.8524 43.5484 34.8213V39.9194H40.6452V34.8387H39.1936V39.9194H36.2903C35.09 39.9194 34.1129 40.8964 34.1129 42.0968V43.5484H30.4839V37.7419H29.0323V43.5484H25.327L24.6905 37.8203L25.1201 36.5313L26.6387 37.4421L27.4942 33.1628L31.2997 34.041C32.9558 34.4237 34.1129 35.8774 34.1129 37.5771V38.4677H35.5645V37.5771C35.5645 35.1981 33.9453 33.1621 31.6264 32.6266L29.6021 32.1598L32.3544 31.3337C32.7768 31.8823 33.5941 32.6613 34.8387 32.6613C36.0834 32.6613 36.9006 31.8823 37.323 31.3337L41.9965 32.7361ZM33.3871 30.2843V29.544C33.8471 29.6819 34.3344 29.7581 34.8387 29.7581C35.343 29.7581 35.8303 29.6819 36.2903 29.544V30.2836C36.1103 30.5622 35.6102 31.2097 34.8387 31.2097C34.0658 31.2097 33.565 30.5594 33.3871 30.2843ZM34.8387 18.871C36.8396 18.871 38.4677 20.4991 38.4677 22.5H35.1392C34.6782 22.5 34.226 22.3129 33.9003 21.9868L33.3871 21.4737L32.8739 21.9868C32.5482 22.3129 32.096 22.5 31.635 22.5H31.2097C31.2097 20.4991 32.8378 18.871 34.8387 18.871ZM31.2097 23.9516H31.635C32.2672 23.9516 32.8711 23.7702 33.3871 23.4314C33.9031 23.7702 34.507 23.9516 35.1392 23.9516H38.4677V24.6774C38.4677 26.6784 36.8396 28.3065 34.8387 28.3065C32.8378 28.3065 31.2097 26.6784 31.2097 24.6774V23.9516ZM30.1121 26.5295C30.4817 27.4683 31.1197 28.271 31.9355 28.8412V29.9438L27.2642 31.3454C27.1104 31.3911 26.9608 31.4507 26.8148 31.5166L26.129 31.3585V29.9285C26.9048 29.3051 27.5161 28.4865 27.8915 27.548C28.7275 27.4747 29.5114 27.1189 30.1121 26.5295ZM28.2753 26.0029C28.2955 25.8055 28.3065 25.6056 28.3065 25.4032V21.9301C29.0875 22.2264 29.6688 22.9136 29.7471 23.7347C29.8066 24.3588 29.6099 24.956 29.1921 25.4156C28.9415 25.6921 28.6222 25.8852 28.2753 26.0029ZM29.7581 18.2628V21.1101C29.1159 20.6238 28.3181 20.3226 27.4559 20.3226H26.5777L25.685 18.5371L25.001 18.9929C23.6954 19.8633 22.1771 20.3226 20.6093 20.3226H17.5441C16.6819 20.3226 15.8841 20.6238 15.2419 21.1101V20.0366C15.2419 16.1928 18.3702 13.0645 22.214 13.0645C24.0764 13.0645 25.8278 13.7896 27.1444 15.1062L27.9145 15.8763L28.0772 15.9309C29.0822 16.2661 29.7581 17.2032 29.7581 18.2628ZM34.8387 1.45161C36.8396 1.45161 38.4677 3.07972 38.4677 5.08065H38.0425C37.5814 5.08065 37.1292 4.89352 36.8035 4.56748L36.2903 4.05431L35.7772 4.56748C35.4515 4.89352 34.9993 5.08065 34.5382 5.08065H31.2097C31.2097 3.07972 32.8378 1.45161 34.8387 1.45161ZM36.2903 12.865C36.1103 13.1428 35.6102 13.7903 34.8387 13.7903C34.0658 13.7903 33.565 13.14 33.3871 12.865V12.1247C33.8471 12.2625 34.3344 12.3387 34.8387 12.3387C35.343 12.3387 35.8303 12.2625 36.2903 12.1247V12.865ZM34.8387 10.8871C32.8378 10.8871 31.2097 9.25899 31.2097 7.25806V6.53226H34.5382C35.1704 6.53226 35.7743 6.35081 36.2903 6.012C36.8063 6.35081 37.4102 6.53226 38.0425 6.53226H38.4677V7.25806C38.4677 9.25899 36.8396 10.8871 34.8387 10.8871ZM18.1452 1.45161H16.6935V0H18.1452V1.45161ZM16.6935 2.90323H18.1452V10.8871H16.6935V2.90323ZM28.3065 1.45161H26.8548V0H28.3065V1.45161ZM26.8548 2.90323H28.3065V10.8871H26.8548V2.90323ZM21.0484 7.98387H19.5968V2.90323H21.0484V7.98387ZM19.5968 9.43548H21.0484V10.8871H19.5968V9.43548ZM25.4032 7.98387H23.9516V2.90323H25.4032V7.98387ZM23.9516 9.43548H25.4032V10.8871H23.9516V9.43548Z" fill="url(#paint0_linear)"/>
<defs>
<linearGradient id="paint0_linear" x1="22.5" y1="45" x2="22.5" y2="0" gradientUnits="userSpaceOnUse">
<stop stop-color="#0961B3"/>
<stop offset="1" stop-color="#00A7A0"/>
</linearGradient>
</defs>
</svg>
