<svg width="15" height="16" viewBox="0 0 15 16" fill="none" xmlns="http://www.w3.org/2000/svg">
<g clip-path="url(#clip0)">
<path d="M10.0154 7.18765L6.26941 5.22738C6.12246 5.15047 5.94598 5.15538 5.80418 5.24093C5.66238 5.32649 5.5752 5.47866 5.5752 5.64346L5.5752 9.56355C5.5752 9.72835 5.66215 9.88076 5.80418 9.96631C5.87918 10.011 5.96402 10.0336 6.04887 10.0336C6.12434 10.0336 6.20027 10.0156 6.26941 9.97964L10.0154 8.01936C10.1708 7.93825 10.2681 7.77812 10.2681 7.60374C10.2681 7.42936 10.1711 7.26877 10.0154 7.18765ZM6.52207 8.78491L6.52207 6.42164L8.7798 7.60327L6.52207 8.78491Z" fill="white"/>
<path d="M2.19727 15.2308L12.8027 15.2308C14.0143 15.2308 15 14.2477 15 13.0393L15 2.46185C15 1.25346 14.0143 0.270386 12.8027 0.270386L2.19727 0.270386C0.98568 0.270386 0 1.25346 0 2.46185L-3.40829e-10 13.0393C-3.73084e-10 14.2477 0.98568 15.2308 2.19727 15.2308ZM0.878906 2.46185C0.878906 1.73684 1.47034 1.14697 2.19727 1.14697L12.8027 1.14697C13.5297 1.14697 14.1211 1.73684 14.1211 2.46185L14.1211 13.0393C14.1211 13.7643 13.5297 14.3542 12.8027 14.3542L2.19727 14.3542C1.47034 14.3542 0.878906 13.7643 0.878906 13.0393L0.878906 2.46185Z" fill="white"/>
</g>
<defs>
<clipPath id="clip0">
<rect width="15" height="14.9604" fill="white" transform="translate(0 0.270386)"/>
</clipPath>
</defs>
</svg>
