<?xml version="1.0" encoding="utf-8"?><svg xmlns="http://www.w3.org/2000/svg" xmlns:xlink="http://www.w3.org/1999/xlink"><symbol viewBox="0 0 284.929 284.929" id="angle-arrow-down" xmlns="http://www.w3.org/2000/svg"><path d="M282.082 76.511l-14.274-14.273c-1.902-1.906-4.093-2.856-6.57-2.856-2.471 0-4.661.95-6.563 2.856L142.466 174.441 30.262 62.241c-1.903-1.906-4.093-2.856-6.567-2.856-2.475 0-4.665.95-6.567 2.856L2.856 76.515C.95 78.417 0 80.607 0 83.082c0 2.473.953 4.663 2.856 6.565l133.043 133.046c1.902 1.903 4.093 2.854 6.567 2.854s4.661-.951 6.562-2.854L282.082 89.647c1.902-1.903 2.847-4.093 2.847-6.565 0-2.475-.945-4.665-2.847-6.571z"/></symbol><symbol viewBox="0 0 10 17" id="arrow-left" xmlns="http://www.w3.org/2000/svg"><path d="M7.838.253a.849.849 0 111.21 1.194L2.915 7.564c-.215.255-.515.38-.515.851 0 .47.3.599.515.85l6.133 6.106a.864.864 0 010 1.206.849.849 0 01-1.21 0L.253 9.013a.83.83 0 010-1.194L7.838.253z"/></symbol><symbol viewBox="0 0 10 17" id="arrow-right" xmlns="http://www.w3.org/2000/svg"><path d="M1.455.253a.849.849 0 10-1.21 1.194l6.133 6.117c.215.255.515.38.515.851 0 .47-.3.599-.515.85L.245 15.372a.864.864 0 000 1.206.849.849 0 001.21 0L9.04 9.013a.83.83 0 000-1.194L1.455.253z"/></symbol><symbol viewBox="0 0 45 45" id="checklist" xmlns="http://www.w3.org/2000/svg"><path d="M39.063 25.763l-2.047-1.365V0H9.436v4.355H0V45h27.58v-4.355h9.436V34.54c.046-.011.093-.015.139-.026l3.376-.843a9.447 9.447 0 012.292-.283H45v-1.451h-2.177c-.89 0-1.78.109-2.644.325l-3.376.844a9.492 9.492 0 01-5.278-.203l-1.223-.408a10.881 10.881 0 00-3.447-.558H20.52c0-1.2.977-2.178 2.178-2.178h7.984a2.18 2.18 0 002.177-2.177 2.174 2.174 0 00-1.922-2.152l.595-2.203h.449c.431 0 .848.126 1.208.366l5.069 3.38a3.635 3.635 0 002.013.609H45V26.13h-4.728a2.17 2.17 0 01-1.209-.366zm-7.999 8.516c1.114.372 2.274.56 3.447.56.352 0 .704-.03 1.053-.065v4.42h-7.983v-2.375a2.61 2.61 0 00.558-1.034l.594-2.202c.374.076.745.167 1.109.289l1.222.407zm-3.785-.875l-.541 2.001c-.14.522-.616.885-1.155.885h-.236a1.197 1.197 0 01-1.154-1.508l.376-1.395h2.286c.141 0 .282.011.424.017zm-4.191-9.541a2.194 2.194 0 011.54-.637h1.184l-.592 2.19a3.597 3.597 0 00-2.433 1.05l-3.779 3.779a.815.815 0 01-1.151-1.15l5.23-5.232zm10.456-13.644l-.888 3.288-2.49-.83.833-3.082a1.2 1.2 0 011.155-.885h.236a1.197 1.197 0 011.154 1.509zm-3.757 3.862l2.49.83-.401 1.481-2.49-.83.401-1.48zm-.78 2.885l2.49.83-2.84 10.51h-2.714l3.064-11.34zm-5.193 10.526c.274-.274.623-.461.996-.559l-.371 1.373H23l.814-.814zm6.869-.637a.727.727 0 010 1.451h-.523l.392-1.451h.13zm1.298-5.08h-.056l3.021-11.177a2.65 2.65 0 00-2.556-3.34h-.235a2.653 2.653 0 00-2.557 1.957l-2.017 7.466V4.355H12.339v1.451h13.79v15.968h-1.502a3.59 3.59 0 00-2.155.726h-7.23v1.452h5.705l-1.452 1.451h-4.253v1.452h2.802l-1.213 1.213a2.268 2.268 0 001.602 3.868c.224 0 .44-.043.648-.106 0 .036-.01.07-.01.106 0 .8.65 1.451 1.451 1.451h2.544l-.274 1.015a2.639 2.639 0 001.246 2.979l-.228.91 1.408.353.225-.902h.14c.187 0 .368-.026.546-.064v5.87H1.452V5.806h9.435V1.452h24.678V23.43l-1.57-1.047a3.623 3.623 0 00-2.014-.61zm-29.078-7.26h18.871V7.258H2.904v7.258zM4.355 8.71h15.968v4.354H4.355V8.71zm1.451 1.451h1.452v1.452H5.806V10.16zm2.904 0h1.451v1.452H8.71V10.16zm2.903 0h1.452v1.452h-1.452V10.16zm2.903 0h1.452v1.452h-1.452V10.16zm2.903 0h1.452v1.452h-1.452V10.16zm-5.806 17.42h-8.71v-8.71H8.71v1.452H4.355v5.806h5.806v-2.903h1.452v4.355zm3.416-10.374l-7.77 7.77-1.966-1.964 1.027-1.026.938.938 6.745-6.745 1.026 1.027zm-4.868 18.358h1.452v4.354h-8.71v-8.71H8.71v1.452H4.355v5.807h5.806v-2.904zm-2.903-.301l6.745-6.745 1.026 1.026-7.77 7.772-1.966-1.965 1.027-1.026.938.938zm17.42 6.107h-1.452v-1.452h1.451v1.452zM13.79 39.919h7.984v1.452H13.79v-1.452zm1.452-20.322h9.435v1.451h-9.435v-1.451z"/><defs><linearGradient id="da" x1="22.5" y1="45" x2="22.5" gradientUnits="userSpaceOnUse"><stop stop-color="#0961B3"/><stop offset="1" stop-color="#00A7A0"/></linearGradient></defs></symbol><symbol viewBox="0 0 284.929 284.929" id="chevron-up" xmlns="http://www.w3.org/2000/svg"><path d="M17.128 167.872c1.903 1.902 4.093 2.854 6.567 2.854s4.664-.952 6.567-2.854L142.466 55.666l112.208 112.206c1.902 1.902 4.093 2.854 6.563 2.854 2.478 0 4.668-.952 6.57-2.854l14.274-14.277c1.902-1.902 2.847-4.093 2.847-6.563 0-2.475-.951-4.665-2.847-6.567L149.028 7.419c-1.901-1.906-4.088-2.853-6.562-2.853s-4.665.95-6.567 2.853L2.856 140.464C.95 142.367 0 144.554 0 147.034c0 2.468.953 4.658 2.856 6.561l14.272 14.277z"/><path d="M149.028 117.055c-1.901-1.906-4.088-2.856-6.562-2.856s-4.665.953-6.567 2.856L2.856 250.1C.95 252.003 0 254.192 0 256.67c0 2.472.953 4.661 2.856 6.564l14.272 14.276c1.903 1.903 4.093 2.848 6.567 2.848s4.664-.951 6.567-2.848l112.204-112.209L254.674 277.51c1.902 1.903 4.093 2.852 6.563 2.852 2.478 0 4.668-.948 6.57-2.852l14.274-14.276c1.902-1.903 2.847-4.093 2.847-6.564 0-2.478-.951-4.667-2.847-6.57L149.028 117.055z"/></symbol><symbol viewBox="0 0 50 50" id="clock" xmlns="http://www.w3.org/2000/svg"><g clip-path="url(#fa)"><path d="M47.475 20.822l1.37-1.37L50 20.608l-3.72 3.72-.187-1.689C44.903 11.882 35.835 3.771 25 3.771c-.526 0-1.055.019-1.573.057l-.12-1.629A23.39 23.39 0 0125 2.14c11.112 0 20.5 7.923 22.475 18.683zm-44.95 8.35C4.501 39.934 13.888 47.858 25 47.858c.567 0 1.137-.02 1.693-.062l-.12-1.628c-.517.038-1.046.057-1.573.057-10.835 0-19.903-8.112-21.093-18.867l-.187-1.69L0 29.389l1.154 1.155 1.371-1.37zm38.803-4.174C41.328 34 34.003 41.326 25 41.326S8.672 34 8.672 24.998c0-9.004 7.325-16.329 16.328-16.329s16.328 7.325 16.328 16.329zm-1.675.816h-4.04v-1.633h4.04c-.412-7.45-6.386-13.425-13.836-13.837v4.04h-1.633v-4.04c-7.45.412-13.425 6.387-13.838 13.837h4.04v1.633h-4.04c.413 7.45 6.387 13.425 13.838 13.837v-4.04h1.633v4.04c7.45-.412 13.424-6.387 13.837-13.837zM12.867 11.758A17.909 17.909 0 0125 7.037c9.904 0 17.961 8.057 17.961 17.96 0 4.506-1.677 8.815-4.722 12.135l1.204 1.104a19.54 19.54 0 005.15-13.238c0-10.805-8.79-19.594-19.593-19.594-4.916 0-9.617 1.83-13.238 5.151l1.104 1.203zM25 44.59a19.54 19.54 0 0013.238-5.151l-1.104-1.204A17.902 17.902 0 0125 42.959c-9.904 0-17.96-8.058-17.96-17.961a17.91 17.91 0 014.721-12.136l-1.204-1.104a19.542 19.542 0 00-5.15 13.24C5.406 35.8 14.196 44.59 25 44.59zm2.299-20.41h3.416v1.633h-3.416A2.446 2.446 0 0125 27.447c-1.35 0-2.45-1.1-2.45-2.45 0-1.063.686-1.96 1.634-2.298v-6.682h1.633V22.7c.691.246 1.236.79 1.482 1.482zm-1.482.817a.817.817 0 10-1.635.001.817.817 0 001.635-.001zM21.34 2.418l-1.6.32.318 1.6 1.6-.319-.318-1.601zm-4.334 1.148l-1.51.625.625 1.508 1.51-.624-.625-1.509zM11.62 6.444l.906 1.358 1.358-.906-.906-1.358-1.358.906zM9.413 8.256L8.259 9.411l1.154 1.154 1.154-1.154-1.154-1.155zm-3.874 4.72l1.358.907.907-1.358-1.358-.907-.907 1.358zm.163 3.144l-1.509-.626-.625 1.51 1.508.625.626-1.51zM4.34 20.056l-1.602-.318-.32 1.601 1.602.318.32-1.601zm25.92 27.203l-.32-1.602-1.601.319.32 1.602 1.6-.32zm2.732-.83l1.51-.625-.625-1.51-1.51.626.625 1.509zm3.12-3.329l.907 1.358 1.358-.907-.906-1.358-1.358.907zm4.474-1.361l1.154-1.155-1.154-1.154-1.155 1.154 1.155 1.155zm3.874-4.72l-1.358-.907-.907 1.358 1.358.907.907-1.359zm.462-4.653l-.626 1.51 1.51.624.625-1.509-1.51-.625zm2.656-3.71l-1.602-.319-.319 1.601 1.602.32.32-1.601z"/></g><defs><linearGradient id="fb" x1="25" y1="47.857" x2="25" y2="2.138" gradientUnits="userSpaceOnUse"><stop stop-color="#0961B3"/><stop offset="1" stop-color="#00A7A0"/></linearGradient><clipPath id="fa"><path d="M0 0h50v50H0z"/></clipPath></defs></symbol><symbol viewBox="0 0 18 18" id="close" xmlns="http://www.w3.org/2000/svg"><path d="M18 .818L17.182 0 9 8.182.818 0 0 .818 8.182 9 0 17.182.818 18 9 9.818 17.182 18l.818-.818L9.818 9 18 .818z"/></symbol><symbol viewBox="0 0 483.3 483.3" id="email" xmlns="http://www.w3.org/2000/svg"><path d="M424.3 57.75H59.1c-32.6 0-59.1 26.5-59.1 59.1v249.6c0 32.6 26.5 59.1 59.1 59.1h365.1c32.6 0 59.1-26.5 59.1-59.1v-249.5c.1-32.6-26.4-59.2-59-59.2zm32.1 308.7c0 17.7-14.4 32.1-32.1 32.1H59.1c-17.7 0-32.1-14.4-32.1-32.1v-249.5c0-17.7 14.4-32.1 32.1-32.1h365.1c17.7 0 32.1 14.4 32.1 32.1v249.5h.1z"/><path d="M304.8 238.55l118.2-106c5.5-5 6-13.5 1-19.1-5-5.5-13.5-6-19.1-1l-163 146.3-31.8-28.4c-.1-.1-.2-.2-.2-.3-.7-.7-1.4-1.3-2.2-1.9L78.3 112.35c-5.6-5-14.1-4.5-19.1 1.1-5 5.6-4.5 14.1 1.1 19.1l119.6 106.9-119.1 111.5c-5.4 5.1-5.7 13.6-.6 19.1 2.7 2.8 6.3 4.3 9.9 4.3 3.3 0 6.6-1.2 9.2-3.6l120.9-113.1 32.8 29.3c2.6 2.3 5.8 3.4 9 3.4s6.5-1.2 9-3.5l33.7-30.2 120.2 114.2c2.6 2.5 6 3.7 9.3 3.7 3.6 0 7.1-1.4 9.8-4.2 5.1-5.4 4.9-14-.5-19.1l-118.7-112.7z"/></symbol><symbol viewBox="0 0 15 15" id="facebook" xmlns="http://www.w3.org/2000/svg"><path d="M2.197 15H7.09V9.668H5.332V7.91H7.09V5.713a2.2 2.2 0 012.197-2.197h2.197v1.757H9.727a.88.88 0 00-.88.88V7.91h2.558l-.293 1.758H8.848V15h3.955A2.2 2.2 0 0015 12.803V2.197A2.2 2.2 0 0012.803 0H2.197A2.2 2.2 0 000 2.197v10.606A2.2 2.2 0 002.197 15zM.88 2.197A1.32 1.32 0 012.197.88h10.606a1.32 1.32 0 011.318 1.318v10.606a1.32 1.32 0 01-1.318 1.318H9.727v-3.574h2.13l.586-3.516H9.727v-.879h2.636V2.637H9.287a3.08 3.08 0 00-3.076 3.076V7.03H4.453v3.516h1.758v3.574H2.197A1.32 1.32 0 01.88 12.803V2.197z"/></symbol><symbol viewBox="0 0 45 45" id="group" xmlns="http://www.w3.org/2000/svg"><path d="M42.414 13.926l-4.672-1.402v-1.102a5.075 5.075 0 002.177-4.163V5.08A5.085 5.085 0 0034.84 0a5.086 5.086 0 00-5.08 5.08v2.178a5.07 5.07 0 002.177 4.163v1.103l-4.118 1.235a8.36 8.36 0 00-5.604-2.146 8.379 8.379 0 00-5.458 2.02l-3.691-1.109v-1.102a5.075 5.075 0 002.177-4.163V5.08a5.087 5.087 0 00-5.08-5.081A5.086 5.086 0 005.08 5.08v2.178c0 1.722.863 3.245 2.177 4.163v1.103l-4.672 1.401A3.608 3.608 0 000 17.402v5.824h1.452v-5.824c0-.969.623-1.807 1.552-2.085l4.673-1.403c.422.549 1.24 1.328 2.484 1.328 1.245 0 2.062-.779 2.485-1.328l2.976.893a8.379 8.379 0 00-1.765 4.217 5.063 5.063 0 00-3.696-1.605 5.086 5.086 0 00-5.08 5.081v2.177c0 1.723.863 3.245 2.177 4.163v1.103l-4.672 1.402A3.608 3.608 0 000 34.82v6.55h8.71c.4 0 .725.326.725.726V45h26.13v-2.903c0-.4.326-.726.725-.726H45v-6.55a3.607 3.607 0 00-2.586-3.476l-4.672-1.401V28.84a5.075 5.075 0 002.177-4.163V22.5a5.085 5.085 0 00-5.08-5.08 5.064 5.064 0 00-3.63 1.53v-.688a3.903 3.903 0 00-1.994-3.406l3.14-.942c.422.548 1.24 1.327 2.484 1.327s2.062-.779 2.484-1.328l4.674 1.403a2.163 2.163 0 011.551 2.085v5.824H45v-5.824a3.607 3.607 0 00-2.586-3.476zM10.161 1.452a3.634 3.634 0 013.63 3.629h-3.33c-.46 0-.912-.187-1.238-.514l-.513-.513-.513.513a1.764 1.764 0 01-1.24.514h-.425a3.634 3.634 0 013.63-3.63zm1.452 11.413c-.18.278-.68.925-1.452.925-.771 0-1.271-.648-1.451-.925v-.74a5.052 5.052 0 002.903 0v.74zm-1.452-1.978c-2 0-3.629-1.628-3.629-3.629v-.726h.426c.632 0 1.236-.181 1.752-.52.516.339 1.12.52 1.752.52h3.328v.726a3.634 3.634 0 01-3.629 3.63zm4.727 15.642c.6.59 1.385.946 2.222 1.019a5.82 5.82 0 001.762 2.38v1.43l-.686.159a3.748 3.748 0 00-.449-.172l-4.672-1.401V28.84a5.107 5.107 0 001.823-2.312zm1.837-.526a2.177 2.177 0 01-.917-.587 2.164 2.164 0 01-.555-1.68c.078-.822.66-1.51 1.44-1.805v3.472c0 .203.011.402.032.6zm4.476 8.043l-1.82 1.093-.46-2.302.51-.118 1.77 1.327zm-.878-2.473v-.79a5.766 5.766 0 004.354 0v.79L22.5 33.206l-2.177-1.633zm2.177 3.386l1.345.807-.417 1.25h-1.857l-.417-1.25 1.346-.807zm1.3-.913l1.769-1.327.51.117-.46 2.302-1.82-1.092zm-1.3-4.288a4.36 4.36 0 01-4.355-4.355v-3.629h2.464a9.335 9.335 0 004.497-1.149l.574 1.15h1.175v3.628a4.36 4.36 0 01-4.355 4.355zM10.161 18.871a3.634 3.634 0 013.63 3.629h-.426c-.461 0-.913-.187-1.239-.513l-.513-.513-.513.513a1.764 1.764 0 01-1.24.513H6.533c0-2 1.628-3.629 3.63-3.629zm-3.629 5.806v-.725h3.329c.632 0 1.236-.182 1.752-.52.516.338 1.12.52 1.752.52h.425v.725a3.633 3.633 0 01-3.629 3.63c-2 0-3.629-1.629-3.629-3.63zm5.08 4.867v.74c-.18.278-.68.926-1.45.926-.772 0-1.272-.649-1.452-.926v-.74a5.049 5.049 0 002.903 0zm8.061 14.004h-3.705v-5.806h-1.452v5.806h-3.629v-1.451a2.18 2.18 0 00-2.177-2.178H5.806v-5.08H4.355v5.08H1.452v-5.098c0-.969.623-1.807 1.552-2.085l4.673-1.402c.422.548 1.24 1.327 2.484 1.327 1.245 0 2.062-.779 2.485-1.327l2.752.826-2.024.467a5.058 5.058 0 00-3.939 4.95v.89h1.452v-.89c0-1.7 1.157-3.153 2.813-3.536l3.805-.878.856 4.28 1.518-.912.43 1.29-.636 5.727zm1.46 0l.565-5.08h1.604l.565 5.08h-2.734zm20.863-10.812a2.163 2.163 0 011.552 2.085v5.098h-2.903v-5.08h-1.451v5.08H36.29a2.18 2.18 0 00-2.177 2.178v1.451h-3.63v-5.806h-1.45v5.806h-3.706l-.637-5.728.43-1.289 1.519.911.855-4.28 3.806.879a3.613 3.613 0 012.813 3.536v.89h1.452v-.89a5.058 5.058 0 00-3.939-4.95l-2.024-.467 2.752-.826c.423.548 1.24 1.327 2.485 1.327 1.244 0 2.062-.779 2.484-1.327l4.673 1.402zm-8.609-2.452v-.74a5.049 5.049 0 002.903 0v.74c-.18.278-.68.926-1.451.926-.773 0-1.274-.65-1.452-.926zm1.452-11.413c2 0 3.629 1.628 3.629 3.629h-3.329c-.46 0-.913-.187-1.239-.513l-.513-.513-.513.513a1.764 1.764 0 01-1.239.513h-.425c0-2 1.628-3.629 3.629-3.629zm-3.63 5.08h.426c.632 0 1.236-.18 1.752-.52.516.34 1.12.52 1.752.52h3.329v.726a3.633 3.633 0 01-3.63 3.63c-2 0-3.628-1.629-3.628-3.63v-.725zm-1.097 2.578a5.102 5.102 0 001.824 2.312v1.103l-4.672 1.401a3.564 3.564 0 00-.45.172l-.685-.159v-1.43a5.837 5.837 0 001.762-2.38 3.614 3.614 0 002.221-1.018zm-1.837-.526a5.95 5.95 0 00.032-.6V21.93c.78.296 1.362.984 1.44 1.805a2.164 2.164 0 01-.555 1.68c-.25.277-.57.47-.917.588zm1.483-7.74v2.847a3.813 3.813 0 00-2.302-.787h-.878l-.893-1.786-.684.456a7.891 7.891 0 01-4.392 1.33h-3.065c-.862 0-1.66.3-2.302.787v-1.073a6.98 6.98 0 016.972-6.972c1.862 0 3.614.725 4.93 2.041l.77.77.163.055a2.456 2.456 0 011.681 2.332zm5.08-16.811a3.633 3.633 0 013.63 3.629h-.426c-.46 0-.913-.187-1.239-.514l-.513-.513-.513.513a1.764 1.764 0 01-1.239.514H31.21a3.634 3.634 0 013.629-3.63zm1.452 11.413c-.18.278-.68.925-1.451.925-.773 0-1.274-.65-1.452-.925v-.74a5.052 5.052 0 002.903 0v.74zm-1.451-1.978a3.634 3.634 0 01-3.63-3.629v-.726h3.33c.631 0 1.235-.181 1.751-.52.516.339 1.12.52 1.752.52h.426v.726a3.634 3.634 0 01-3.63 3.63zM18.145 1.452h-1.451V0h1.451v1.452zm-1.451 1.451h1.451v7.984h-1.451V2.903zm11.613-1.451h-1.452V0h1.451v1.452zm-1.452 1.451h1.451v7.984h-1.451V2.903zm-5.807 5.08h-1.451v-5.08h1.451v5.08zm-1.451 1.452h1.451v1.452h-1.451V9.435zm5.806-1.451h-1.451v-5.08h1.451v5.08zm-1.451 1.451h1.451v1.452h-1.451V9.435z"/><defs><linearGradient id="ja" x1="22.5" y1="45" x2="22.5" gradientUnits="userSpaceOnUse"><stop stop-color="#0961B3"/><stop offset="1" stop-color="#00A7A0"/></linearGradient></defs></symbol><symbol viewBox="0 0 14 14" id="imo" xmlns="http://www.w3.org/2000/svg"><path d="M11.95 2.05A6.954 6.954 0 007 0C5.13 0 3.372.728 2.05 2.05A6.954 6.954 0 000 7c0 1.87.728 3.628 2.05 4.95A6.954 6.954 0 007 14c1.87 0 3.628-.728 4.95-2.05A6.954 6.954 0 0014 7c0-1.87-.728-3.628-2.05-4.95zM7 13.558A6.565 6.565 0 01.442 7 6.565 6.565 0 017 .442 6.565 6.565 0 0113.558 7 6.565 6.565 0 017 13.558z"/><path d="M2.591 5.298c0-.242.135-.363.405-.363s.406.12.406.363a.356.356 0 01-.103.271c-.067.064-.168.096-.303.096-.27 0-.405-.123-.405-.367zm.776 3.435h-.744v-2.73h.744v2.73zm3.228 0H5.85V7.14c0-.197-.033-.344-.1-.442-.065-.099-.168-.149-.31-.149-.19 0-.329.07-.415.21-.086.14-.13.37-.13.691v1.284h-.744v-2.73h.569l.1.35h.042a.749.749 0 01.317-.293 1.02 1.02 0 01.476-.107c.409 0 .685.133.83.4h.066a.739.739 0 01.322-.295c.144-.07.305-.105.484-.105.309 0 .543.08.7.239.16.158.24.412.24.762v1.78H7.55V7.138c0-.197-.034-.344-.1-.442-.066-.099-.169-.149-.31-.149-.183 0-.32.065-.41.196-.09.13-.135.337-.135.62v1.37zm3.062-1.37c0 .27.043.475.131.614.09.138.235.207.435.207.198 0 .34-.068.427-.205.088-.138.132-.343.132-.615 0-.27-.044-.473-.132-.608-.088-.135-.232-.203-.432-.203-.198 0-.342.068-.43.203-.088.133-.131.336-.131.608zm1.887 0c0 .445-.117.793-.352 1.043-.234.25-.56.376-.979.376-.262 0-.493-.057-.693-.17a1.161 1.161 0 01-.462-.496 1.661 1.661 0 01-.16-.752c0-.446.116-.793.348-1.04.233-.248.56-.371.982-.371.262 0 .493.057.693.17.2.114.354.278.462.491.107.213.16.463.16.75z"/></symbol><symbol viewBox="0 0 15 15" id="instagram" xmlns="http://www.w3.org/2000/svg"><path d="M2.197 15h10.606A2.2 2.2 0 0015 12.803V2.197A2.2 2.2 0 0012.803 0H2.197A2.2 2.2 0 000 2.197v10.606A2.2 2.2 0 002.197 15zM.88 2.197A1.32 1.32 0 012.197.88h10.606a1.32 1.32 0 011.318 1.318v10.606a1.32 1.32 0 01-1.318 1.318H2.197A1.32 1.32 0 01.88 12.803V2.197z"/><path d="M7.5 11.455A3.96 3.96 0 0011.455 7.5 3.96 3.96 0 007.5 3.545 3.96 3.96 0 003.545 7.5 3.96 3.96 0 007.5 11.455zm0-7.031A3.08 3.08 0 0110.576 7.5 3.08 3.08 0 017.5 10.576 3.08 3.08 0 014.424 7.5 3.08 3.08 0 017.5 4.424zm4.395 0a1.32 1.32 0 001.318-1.319 1.32 1.32 0 00-1.318-1.318 1.32 1.32 0 00-1.319 1.318 1.32 1.32 0 001.319 1.319zm0-1.758a.44.44 0 11-.002.88.44.44 0 01.002-.88z"/></symbol><symbol viewBox="0 0 18 10" id="scroll-down" xmlns="http://www.w3.org/2000/svg"><path d="M17.147 1.655a.847.847 0 000-1.21.853.853 0 00-1.198 0L9.816 6.578c-.255.215-.382.515-.853.515-.472 0-.6-.3-.853-.515L1.988.445a.868.868 0 00-1.21 0 .847.847 0 000 1.21L8.365 9.24a.833.833 0 001.197 0l7.586-7.585z"/></symbol><symbol viewBox="0 0 17 10" id="select-arrow" xmlns="http://www.w3.org/2000/svg"><path d="M16.517 2.027l-.002.002L8.93 9.594l-.002.002a.685.685 0 01-.982 0l-.002-.002L.36 2.029l-.002-.002a.694.694 0 01.002-.992.72.72 0 01.999.001l6.12 6.116.01.008c.055.047.105.1.16.16h.001c.054.057.115.121.184.179.146.12.33.21.604.21.275 0 .458-.09.604-.21.068-.057.128-.12.182-.177l.002-.002c.056-.06.106-.112.162-.16l.01-.008 6.133-6.117a.705.705 0 01.985 0c.28.28.278.726.002.992z"/></symbol><symbol viewBox="0 0 14 14" id="smartphone" xmlns="http://www.w3.org/2000/svg"><path d="M9.939 0H4.06a1.03 1.03 0 00-1.028 1.028v11.944A1.03 1.03 0 004.061 14h5.877a1.03 1.03 0 001.028-1.028V1.028A1.03 1.03 0 009.94 0zm-6.44 1.867h7v8.866h-7V1.867zm.562-1.4h5.877c.31 0 .562.251.562.56V1.4h-7v-.372c0-.31.252-.561.561-.561zm5.878 13.066H4.06a.562.562 0 01-.561-.56V11.2h7v1.772c0 .31-.252.561-.561.561z"/><path d="M7 11.433A.934.934 0 007 13.3a.934.934 0 000-1.867zm0 1.4a.467.467 0 110-.934.467.467 0 010 .934zM6.067 1.167H7A.233.233 0 107 .7h-.933a.233.233 0 100 .467zm1.633 0h.233a.233.233 0 100-.467H7.7a.233.233 0 100 .467zm5.51-.101a.233.233 0 10-.33.33 2.24 2.24 0 010 3.162.233.233 0 10.33.33 2.706 2.706 0 000-3.822z"/><path d="M12.227 1.597a.233.233 0 10-.33.33c.289.289.448.673.448 1.082 0 .41-.16.794-.448 1.083a.233.233 0 10.33.33c.377-.377.584-.879.584-1.413 0-.533-.207-1.035-.584-1.412zM1.121 1.396a.233.233 0 10-.33-.33 2.706 2.706 0 000 3.822.233.233 0 00.33 0 .233.233 0 000-.33 2.238 2.238 0 010-3.162z"/><path d="M2.103 1.533a.233.233 0 00-.33 0 1.983 1.983 0 00-.584 1.412c0 .534.207 1.035.584 1.412a.233.233 0 00.33 0 .233.233 0 000-.33 1.52 1.52 0 01-.447-1.082c0-.41.158-.794.447-1.082a.234.234 0 000-.33z"/></symbol><symbol viewBox="0 0 14 14" id="telegram" xmlns="http://www.w3.org/2000/svg"><path d="M11.95 2.05A6.954 6.954 0 007 0C5.13 0 3.372.728 2.05 2.05A6.954 6.954 0 000 7c0 1.87.728 3.628 2.05 4.95A6.954 6.954 0 007 14c1.87 0 3.628-.728 4.95-2.05A6.954 6.954 0 0014 7c0-1.87-.728-3.628-2.05-4.95zM7 13.558A6.565 6.565 0 01.442 7 6.565 6.565 0 017 .442 6.565 6.565 0 0113.558 7 6.565 6.565 0 017 13.558z"/><path d="M10.964 2.697a.22.22 0 00-.234-.02L2.183 7.098a.221.221 0 00.002.394L4.421 8.61v2.215a.222.222 0 00.328.2l2.558-1.421 1.958.839a.222.222 0 00.31-.157l.495-2.477a.221.221 0 10-.434-.087l-.442 2.21-1.812-.777a.221.221 0 00-.195.01l-2.324 1.29v-1.98a.221.221 0 00-.122-.198L2.77 7.29l7.754-4.01-.673 3.364a.221.221 0 00.433.087l.763-3.815a.22.22 0 00-.084-.22z"/><path d="M9.531 4.505a.221.221 0 00-.29-.051l-3.83 2.358A.221.221 0 005.304 7v2.358a.221.221 0 00.419.099l.868-1.737 2.922-2.922a.221.221 0 00.017-.293zM6.254 7.433a.221.221 0 00-.041.058l-.466.93V7.124L7.87 5.817 6.254 7.433z"/></symbol><symbol viewBox="0 0 14 14" id="viber" xmlns="http://www.w3.org/2000/svg"><path d="M8.333 0H5.666A5.07 5.07 0 00.601 5.064v2.402a5.074 5.074 0 003.2 4.71v1.557a.266.266 0 00.445.198l1.546-1.4h2.541a5.07 5.07 0 005.065-5.065V5.064A5.07 5.07 0 008.333 0zm4.532 7.466a4.537 4.537 0 01-4.532 4.532H5.689a.266.266 0 00-.179.069l-1.176 1.065v-1.14a.266.266 0 00-.178-.252 4.54 4.54 0 01-3.022-4.274V5.064A4.537 4.537 0 015.666.534h2.667c2.5 0 4.532 2.032 4.532 4.53v2.402z"/><path d="M10.523 8.13L8.885 7.065a.798.798 0 00-1.107.235l-.077.118c-.71-.234-1.491-.533-1.96-1.889l.195-.168a.801.801 0 00.078-1.129L4.732 2.758a.267.267 0 00-.376-.027l-.805.7c-.706.614-.376 1.522-.268 1.82a.264.264 0 00.018.038c.028.05.696 1.243 1.776 2.343 1.084 1.104 3.04 2.123 3.1 2.153a1.335 1.335 0 001.844-.392l.58-.894a.267.267 0 00-.078-.37zm-.95.973a.809.809 0 01-1.128.222c-.02-.01-1.963-1.023-2.988-2.066a11.901 11.901 0 01-1.68-2.21c-.211-.593-.174-.957.124-1.215l.604-.525 1.107 1.273a.264.264 0 01-.026.376l-.327.285a.266.266 0 00-.08.28C5.737 7.334 6.821 7.69 7.613 7.95l.116.038a.266.266 0 00.308-.108l.189-.29a.263.263 0 01.368-.079l1.415.92-.435.67zM7.608 4.332a.266.266 0 10-.146.512c.397.113.714.43.826.828a.267.267 0 00.513-.145 1.743 1.743 0 00-1.193-1.195z"/><path d="M9.637 5.924a.267.267 0 00.257-.339 3.386 3.386 0 00-2.317-2.322.266.266 0 10-.146.513 2.849 2.849 0 011.95 1.954c.033.117.14.194.256.194z"/><path d="M7.463 2.021a.267.267 0 10-.146.513 4.827 4.827 0 013.303 3.31.267.267 0 00.513-.144 5.364 5.364 0 00-3.67-3.679z"/></symbol><symbol viewBox="0 0 60 60" id="video" xmlns="http://www.w3.org/2000/svg"><path d="M53.479 27.435L10.672.915C7.553-1.132 5 .374 5 4.261v51.48c0 3.885 2.553 5.391 5.672 3.346l42.807-26.52S55 31.497 55 30.001s-1.521-2.566-1.521-2.566z"/></symbol><symbol viewBox="0 0 14 14" id="whatsapp" xmlns="http://www.w3.org/2000/svg"><g clip-path="url(#sa)"><path d="M7 0C3.14 0 0 3.14 0 7c0 1.317.366 2.595 1.06 3.705-.277.969-.776 2.801-.781 2.82a.268.268 0 00.339.328L3.392 13c1.087.655 2.332 1 3.608 1 3.86 0 7-3.14 7-7s-3.14-7-7-7zm0 13.461a6.446 6.446 0 01-3.428-.982.27.27 0 00-.222-.03l-2.423.746c.178-.65.498-1.811.684-2.458a.27.27 0 00-.033-.22A6.437 6.437 0 01.538 7 6.47 6.47 0 017 .538 6.47 6.47 0 0113.461 7 6.47 6.47 0 017 13.461z"/><path d="M11.573 8.65a19.89 19.89 0 01-1.229-.755 6.502 6.502 0 00-.531-.328c-.35-.175-.614-.051-.715.05a.269.269 0 00-.033.041c-.363.544-.837 1.065-.975 1.093-.16-.025-.91-.451-1.655-1.072-.761-.634-1.24-1.241-1.31-1.655.488-.502.664-.818.664-1.178 0-.37-.865-1.918-1.022-2.075-.156-.157-.51-.181-1.05-.073a.272.272 0 00-.138.073c-.065.066-1.596 1.626-.869 3.518.799 2.076 2.848 4.49 5.462 4.881.297.044.575.067.836.067 1.537 0 2.444-.774 2.7-2.308a.268.268 0 00-.135-.28zm-3.321 1.987c-2.764-.414-4.504-3.152-5.04-4.541-.53-1.379.449-2.608.694-2.886.2-.034.41-.048.498-.034.183.255.818 1.454.846 1.67 0 .141-.046.338-.594.887a.268.268 0 00-.079.19c0 1.41 2.974 3.365 3.5 3.365.458 0 1.055-.77 1.395-1.27.02 0 .053.007.1.03.097.05.265.159.478.298.28.183.653.426 1.093.679-.2.96-.759 1.933-2.891 1.612z"/></g><defs><clipPath id="sa"><path d="M0 0h14v14H0z"/></clipPath></defs></symbol><symbol viewBox="0 0 15 16" id="youtube" xmlns="http://www.w3.org/2000/svg"><g clip-path="url(#ta)"><path d="M10.015 7.188L6.27 5.228a.475.475 0 00-.694.415v3.92a.47.47 0 00.474.47.478.478 0 00.22-.053l3.746-1.96a.47.47 0 000-.832zM6.522 8.785V6.422L8.78 7.603 6.522 8.785z"/><path d="M2.197 15.23h10.606A2.197 2.197 0 0015 13.04V2.461A2.197 2.197 0 0012.803.27H2.197A2.197 2.197 0 000 2.462v10.577c0 1.209.986 2.192 2.197 2.192zM.88 2.463c0-.725.591-1.315 1.318-1.315h10.606c.727 0 1.318.59 1.318 1.315V13.04c0 .725-.591 1.315-1.318 1.315H2.197c-.727 0-1.318-.59-1.318-1.315V2.462z"/></g><defs><clipPath id="ta"><path transform="translate(0 .27)" d="M0 0h15v14.96H0z"/></clipPath></defs></symbol></svg>