<svg width="645" height="677" viewBox="0 0 645 677" fill="none" xmlns="http://www.w3.org/2000/svg"><path d="M321.649 272L219 394.099 284.581 487h76.987L430 394.099 321.649 272z" stroke="#000" stroke-opacity=".05"/><path d="M322.27 333L278 388.086 306.284 430h33.202L369 388.086 322.27 333z" stroke="#000" stroke-opacity=".05"/><path d="M321.207 195.121L160.286 385.71l102.81 145.014h120.691l107.28-145.014-169.86-190.589z" stroke="#000" stroke-opacity=".05"/><path d="M317.324 128L95 388.099 237.041 586h166.743L552 388.099 317.324 128z" stroke="#000" stroke-opacity=".05"/><path d="M315.432 66L43 385.16 217.054 628h204.324L603 385.16 315.432 66z" stroke="#000" stroke-opacity=".05"/><path d="M313.811 1L1 384.333 200.851 676h234.608L644 384.333 313.811 1z" stroke="#000" stroke-opacity=".05"/></svg>